<?xml version="1.0" encoding="UTF-8" standalone="no"?>
<svg
   xmlns:dc="http://purl.org/dc/elements/1.1/"
   xmlns:cc="http://creativecommons.org/ns#"
   xmlns:rdf="http://www.w3.org/1999/02/22-rdf-syntax-ns#"
   xmlns:svg="http://www.w3.org/2000/svg"
   xmlns="http://www.w3.org/2000/svg"
   xmlns:sodipodi="http://sodipodi.sourceforge.net/DTD/sodipodi-0.dtd"
   xmlns:inkscape="http://www.inkscape.org/namespaces/inkscape"
   width="122.154"
   height="30"
   viewBox="0 0 122.154 30"
   version="1.1"
   id="svg11"
   sodipodi:docname="logo-with-text.svg"
   inkscape:version="0.92.3 (2405546, 2018-03-11)">
  <metadata
     id="metadata17">
    <rdf:RDF>
      <cc:Work
         rdf:about="">
        <dc:format>image/svg+xml</dc:format>
        <dc:type
           rdf:resource="http://purl.org/dc/dcmitype/StillImage" />
        <dc:title></dc:title>
      </cc:Work>
    </rdf:RDF>
  </metadata>
  <defs
     id="defs15" />
  <sodipodi:namedview
     pagecolor="#ffffff"
     bordercolor="#666666"
     borderopacity="1"
     objecttolerance="10"
     gridtolerance="10"
     guidetolerance="10"
     inkscape:pageopacity="0"
     inkscape:pageshadow="2"
     inkscape:window-width="2560"
     inkscape:window-height="1382"
     id="namedview13"
     showgrid="false"
     inkscape:zoom="5.8225621"
     inkscape:cx="84.975216"
     inkscape:cy="10.910715"
     inkscape:window-x="0"
     inkscape:window-y="27"
     inkscape:window-maximized="1"
     inkscape:current-layer="svg11" />
  <path
     style="fill:#008489;fill-opacity:1;stroke-width:0.38779047"
     d="M 16.931456,10.056416 C 17.612094,9.5587216 17.573792,9.3977176 16.133046,6.7001798 15.300706,5.1417748 14.075579,3.2829538 13.41054,2.5694666 L 12.20138,1.2722172 h 3.808499 c 2.094675,0 4.236368,0.19495 4.759319,0.433222 0.52295,0.2382721 1.422921,1.3006301 1.999935,2.3607955 0.807536,1.4837093 1.21787,1.8834438 1.781962,1.7359306 0.403064,-0.1054038 0.732844,-0.1332343 0.732844,-0.061846 0,0.071388 -0.631165,1.1893383 -1.40259,2.4843331 l -1.40259,2.3545366 h -3.131118 c -2.721422,0 -3.037572,-0.0684 -2.416185,-0.522773 z"
     id="path1517"
     inkscape:connector-curvature="0" />
  <path
     style="fill:#008489;fill-opacity:1;stroke-width:0.38779047"
     d="M 8.2211578,9.5367536 C 6.6215228,8.5429796 5.2502518,7.6831942 5.1738908,7.6261188 4.9830108,7.483448 7.7537328,2.9584125 8.4714148,2.2407301 c 0.319398,-0.3193973 1.00402,-0.5807224 1.521383,-0.5807224 1.0240822,0 3.8723542,2.334559 4.2324352,3.4690756 0.133343,0.4201255 -0.409228,1.7861748 -1.374231,3.4599495 -0.877011,1.5211562 -1.623106,2.7632272 -1.65799,2.7601592 -0.03488,-0.0031 -1.3722182,-0.818665 -2.9718542,-1.8124384 z"
     id="path1519"
     inkscape:connector-curvature="0" />
  <path
     style="fill:#008489;fill-opacity:1;stroke-width:0.38779047"
     d="m 1.6404418,20.165678 c -0.526765,-0.266547 -1.22132798,-0.95422 -1.54347398,-1.528163 -0.546063,-0.972878 -0.514036,-1.189692 0.473016,-3.202254 1.24500798,-2.538522 1.27888398,-2.85501 0.380103,-3.55111 -0.584304,-0.45254 -0.22295,-0.512385 2.59968398,-0.430542 l 3.278317,0.09506 1.45106,2.520638 c 1.678033,2.914913 1.7759602,3.280955 0.727665,2.719925 -0.662173,-0.354384 -0.900905,-0.195201 -1.768554,1.179243 -0.551675,0.873911 -1.098396,1.837406 -1.214934,2.1411 -0.267093,0.696032 -3.047874,0.73163 -4.382883,0.05611 z"
     id="path1521"
     inkscape:connector-curvature="0" />
  <path
     style="fill:#008489;fill-opacity:1;stroke-width:0.38779047"
     d="m 5.2370338,28.22402 c -0.660527,-0.462651 -4.38389498,-6.769599 -4.38389498,-7.425803 0,-0.09007 0.33753898,0.01688 0.75008698,0.237671 0.412548,0.220789 2.572056,0.401434 4.798908,0.401434 2.22685,0 4.5941502,0.109066 5.2606652,0.242369 l 1.211845,0.242369 v 3.441641 3.44164 H 9.4708148 c -2.397051,0 -3.64931,-0.171942 -4.233781,-0.581321 z"
     id="path1523"
     inkscape:connector-curvature="0" />
  <path
     style="fill:#008489;fill-opacity:1;stroke-width:0.38779047"
     d="m 17.127046,27.856176 -1.343974,-2.525919 1.352806,-2.517074 c 1.179779,-2.195135 1.391723,-2.411871 1.657081,-1.694539 0.290506,0.785313 0.474972,0.811411 4.076261,0.576712 2.074592,-0.135204 4.178648,-0.359845 4.675681,-0.499203 0.863738,-0.242176 0.834004,-0.114771 -0.672487,2.881491 -2.122628,4.221697 -2.716853,4.727697 -5.551998,4.727697 -1.924215,0 -2.310118,0.118947 -2.557757,0.788378 -0.247263,0.668417 -0.496139,0.404032 -1.635613,-1.737543 z"
     id="path1525"
     inkscape:connector-curvature="0" />
  <path
     style="fill:#008489;fill-opacity:1;stroke-width:0.38779047"
     d="m 22.82179,19.013632 c -0.519024,-0.90646 -1.204357,-2.163698 -1.522962,-2.793862 l -0.579282,-1.145752 2.942804,-1.858261 c 1.618542,-1.022043 3.06583,-1.727995 3.216195,-1.568781 0.150366,0.159214 0.907429,1.451544 1.682364,2.871845 1.76719,3.238909 1.621827,4.341497 -0.712107,5.401387 -0.877462,0.398475 -2.155174,0.728333 -2.839359,0.733017 -1.060622,0.0073 -1.383062,-0.234401 -2.187653,-1.639593 z"
     id="path1527"
     inkscape:connector-curvature="0" />
  <text
     xml:space="preserve"
     style="font-style:normal;font-weight:normal;font-size:21.31387329px;line-height:1.25;font-family:sans-serif;letter-spacing:0px;word-spacing:0px;fill:#008690;fill-opacity:1;stroke:none;stroke-width:0.53284681"
     x="28.222012"
     y="22.783943"
     id="text1531"><tspan
       sodipodi:role="line"
       id="tspan1529"
       x="28.222012"
       y="22.783943"
       style="stroke-width:0.53284681"><tspan
   style="fill:#000000;fill-opacity:0.77560973"
   id="tspan1533">Re</tspan>cyclex</tspan></text>
</svg>
