<?xml version="1.0" encoding="UTF-8" standalone="no"?>
<svg
   xmlns:dc="http://purl.org/dc/elements/1.1/"
   xmlns:cc="http://creativecommons.org/ns#"
   xmlns:rdf="http://www.w3.org/1999/02/22-rdf-syntax-ns#"
   xmlns:svg="http://www.w3.org/2000/svg"
   xmlns="http://www.w3.org/2000/svg"
   id="svg3812"
   version="1.1"
   height="27.999992"
   width="28">
  <metadata
     id="metadata3818">
    <rdf:RDF>
      <cc:Work
         rdf:about="">
        <dc:format>image/svg+xml</dc:format>
        <dc:type
           rdf:resource="http://purl.org/dc/dcmitype/StillImage" />
        <dc:title></dc:title>
      </cc:Work>
    </rdf:RDF>
  </metadata>
  <defs
     id="defs3816" />
  <g
     transform="matrix(0.06936371,0,0,0.06936371,-7.9367559,-2.8457862)"
     id="g3810">
    <g
       id="g3535">
      <path
         style="fill:#000000;fill-rule:evenodd;stroke-width:0.25000001pt"
         d="m 391.75558,224.96558 86.47333,-52.78124 38.7446,76.30333 c 9.35858,41.68945 -41.92651,56.98843 -83.10428,54.50238 z"
         id="path2742" />
      <path
         style="fill:#000000;fill-rule:evenodd;stroke-width:0.25000001pt"
         d="m 372.10257,279.46796 -45.4827,82.04037 45.4827,83.18787 1.12302,-33.27512 h 41.55212 c 15.16092,1.33859 34.81396,-8.7969 42.11365,-23.52206 l 53.34393,-99.82541 c -17.59418,17.78503 -40.21771,22.37463 -66.25876,22.37463 h -70.18939 z"
         id="path2743" />
      <path
         style="fill:#000000;fill-rule:evenodd;stroke-width:0.25000001pt"
         d="m 270.48337,178.31979 -87.13874,-51.62612 46.48795,-71.646554 c 31.13187,-28.595415 69.11652,9.790951 86.97629,47.781214 z"
         id="path2751" />
      <path
         style="fill:#000000;fill-rule:evenodd;stroke-width:0.25000001pt"
         d="m 326.66125,169.4209 92.28006,0.80784 L 468.0499,89.221458 439.03067,104.36955 418.86188,67.25164 C 412.64847,53.058864 394.43604,40.422737 378.29224,41.049381 L 266.9776,41.85178 c 23.75888,7.084045 38.66745,25.065586 51.30743,48.32777 l 34.06894,62.69913 z"
         id="path2752" />
      <path
         style="fill:#000000;fill-rule:evenodd;stroke-width:0.25000001pt"
         d="m 116.66327,174.04561 26.99945,21.09503 -25.41125,48.6808 c -12.70563,22.44721 9.12164,44.31473 23.02893,51.92621 13.69085,7.49304 34.94055,8.38394 54.79306,8.11346 l 35.73461,-58.41699 26.99946,14.60428 -46.85199,-86.81416 z"
         id="path2753" />
      <path
         style="fill:#000000;fill-rule:evenodd;stroke-width:0.25000001pt"
         d="m 120.63379,286.82288 57.96945,107.09774 c 11.64682,14.87476 33.61704,18.39057 56.38129,17.8497 h 61.14584 V 310.3519 l -115.93896,-0.81134 c -17.99967,1.08178 -41.55805,-2.7045 -59.55762,-22.71768 z"
         id="path2754" />
    </g>
    <title
       id="title3808">Layer 1</title>
  </g>
  <path
     id="path5178"
     d="m 15.496722,8.7991928 c -0.398733,-0.09048 -0.398185,-0.09135 0.317429,-0.508235 0.394265,-0.229682 0.716846,-0.470462 0.716846,-0.535065 0,-0.215252 -2.626103,-4.912405 -3.186532,-5.699558 -0.303628,-0.426465 -0.882378,-1.01508 -1.286109,-1.308036 l -0.734056,-0.532646 1.580529,-0.09107 c 2.497082,-0.143891 5.58604,-0.108249 6.185557,0.07137 0.881594,0.264133 1.610332,1.008162 2.373714,2.423522 1.06991,1.983682 0.945846,1.885925 1.826858,1.439482 0.409898,-0.207712 0.774386,-0.348539 0.809974,-0.312953 0.03559,0.03559 -0.623526,1.198466 -1.464696,2.584173 l -1.5294,2.519468 -2.605345,0.02009 c -1.432941,0.01105 -2.785088,-0.02069 -3.004769,-0.07054 z"
     style="fill:#37c8ab;stroke-width:0.14107874" />
  <path
     id="path5180"
     d="m 20.97614,15.816232 c -0.680213,-1.271046 -1.328856,-2.459344 -1.441431,-2.640661 -0.112575,-0.181316 -0.172144,-0.362203 -0.132378,-0.401972 0.03977,-0.03977 1.358285,-0.85798 2.930041,-1.818251 l 2.857737,-1.7459522 1.33988,2.5711582 c 1.162303,2.23039 1.341072,2.666017 1.348866,3.286887 0.02111,1.682313 -1.653307,2.804294 -4.450896,2.98242 l -1.215071,0.07736 z"
     style="fill:#37c8ab;stroke-width:0.14107874" />
  <path
     id="path5182"
     d="m 16.284111,24.952238 c -0.795332,-1.452897 -1.446058,-2.674994 -1.446058,-2.715777 0,-0.04078 0.650726,-1.248138 1.446058,-2.683012 1.545617,-2.788481 1.592445,-2.825202 1.640983,-1.286803 l 0.01669,0.529046 2.715765,-0.0028 c 3.272433,-0.0034 4.417047,-0.14721 5.533877,-0.69544 0.463652,-0.227599 0.851703,-0.401674 0.862332,-0.386835 0.06654,0.09289 -3.603667,6.67643 -3.880461,6.960673 -0.736474,0.756294 -1.253541,0.896175 -3.312686,0.896175 h -1.901539 l -0.07809,0.599584 c -0.04295,0.329772 -0.09445,0.785711 -0.114453,1.013198 -0.03021,0.343554 -0.281309,-0.03384 -1.482425,-2.228015 z"
     style="fill:#37c8ab;stroke-width:0.14107874" />
  <path
     id="path5184"
     d="m 6.8396311,25.566227 c -1.04822,-0.153212 -1.97737,-0.644941 -2.362489,-1.250287 -0.598992,-0.941527 -3.49119598,-6.387357 -3.426558,-6.451994 0.03508,-0.03508 0.405863,0.111721 0.823969,0.326219 l 0.76019,0.389998 3.950205,0.09336 c 2.172613,0.05135 4.4104729,0.09984 4.9730249,0.107764 l 1.022821,0.0144 v 3.456429 3.456427 l -2.504148,-0.0176 c -1.3772809,-0.0097 -2.8339379,-0.06581 -3.2370149,-0.124721 z"
     style="fill:#37c8ab;stroke-width:0.14107874" />
  <path
     id="path5186"
     d="m 3.9044521,18.089405 c -0.620747,-0.05578 -1.35969,-0.199203 -1.642095,-0.318714 -1.098962,-0.465065 -2.22577098,-1.852589 -2.23447098,-2.751478 -0.0016,-0.176027 0.46934,-1.229042 1.04676498,-2.340036 L 2.1245151,10.65919 1.2928921,10.022339 0.46127012,9.3854848 1.9579191,9.2939148 c 0.823158,-0.05037 2.232728,-0.09038 3.132378,-0.08893 l 1.63573,0.0026 1.481325,2.7663082 c 0.814732,1.52147 1.503939,2.826076 1.531573,2.899128 0.02763,0.07305 -0.314365,-0.07295 -0.759999,-0.324451 -0.956595,-0.53987 -0.702948,-0.748083 -2.293962,1.883063 -0.841169,1.391086 -1.151493,1.794104 -1.369725,1.778862 -0.155186,-0.01084 -0.790042,-0.06535 -1.410787,-0.121128 z"
     style="fill:#37c8ab;stroke-width:0.14107874" />
  <path
     id="path5188"
     d="m 7.9469051,7.7348618 c -1.50113,-0.883821 -2.793538,-1.671157 -2.872016,-1.749635 -0.0962,-0.0962 0.326793,-0.870893 1.298264,-2.377725 1.669633,-2.589734 1.985099,-2.960316 2.703187,-3.17546 1.3576349,-0.406758 3.2795789,0.933525 4.4760149,3.121381 l 0.401329,0.733885 -1.547913,2.528055 c -0.851352,1.39043 -1.588779,2.527692 -1.638727,2.527251 -0.04995,-4.63e-4 -1.3190109,-0.723929 -2.8201389,-1.607752 z"
     style="fill:#008489;fill-opacity:1;stroke-width:0.14107874" />
  <path
     id="path5190"
     d="m 15.403455,8.6732928 c 6.94e-4,-0.0582 0.25454,-0.250549 0.564316,-0.427449 0.309776,-0.176903 0.563226,-0.41473 0.563226,-0.528505 0,-0.240406 -2.018549,-3.935448 -2.89618,-5.301582 -0.329237,-0.512496 -0.89113,-1.176326 -1.248651,-1.475177 -0.357519,-0.298849 -0.596685,-0.596715 -0.531476,-0.661924 0.06521,-0.06521 1.667806,-0.126138 3.561334,-0.135402 3.242525,-0.01586 3.476373,4.62e-4 4.020445,0.280446 0.763367,0.392856 1.305146,1.03158 2.12712,2.507741 0.373169,0.670172 0.789275,1.277782 0.924678,1.350246 0.174621,0.09346 0.414781,0.04574 0.826176,-0.164135 0.318996,-0.162739 0.602916,-0.272967 0.630932,-0.244951 0.02802,0.02802 -0.597117,1.141736 -1.389189,2.474929 l -1.44013,2.423989 -2.856844,0.0038 c -1.571263,0.0021 -2.856353,-0.04382 -2.855757,-0.102018 z"
     style="fill:#008489;fill-opacity:1;stroke-width:0.14107874" />
  <path
     id="path5192"
     d="m 20.904439,15.581748 c -0.737137,-1.374861 -1.357989,-2.564636 -1.379672,-2.643946 -0.03866,-0.141421 5.575142,-3.6833822 5.670461,-3.5777062 0.02672,0.02962 0.604549,1.1422702 1.284064,2.4725482 1.426432,2.79252 1.571374,3.407494 1.024795,4.348099 -0.594095,1.02237 -2.055092,1.645536 -4.271847,1.822092 l -0.987553,0.07866 z"
     style="fill:#008489;fill-opacity:1;stroke-width:0.14107874" />
  <path
     id="path5194"
     d="m 16.499309,25.183982 c -1.278849,-2.330975 -1.520177,-2.804588 -1.520177,-2.983406 0,-0.196169 2.362789,-4.417347 2.6122,-4.66676 0.185114,-0.185113 0.209624,-0.144568 0.211534,0.349903 0.0038,0.980578 -0.127611,0.948532 3.612899,0.881097 3.217437,-0.05801 3.412351,-0.07734 4.35072,-0.431576 0.540308,-0.203969 1.006153,-0.347078 1.035207,-0.318024 0.05584,0.05584 -1.948401,3.725338 -3.096357,5.669035 -0.920977,1.559382 -1.239345,1.711476 -3.873243,1.850363 l -1.960845,0.103396 -0.04418,0.634853 c -0.0243,0.34917 -0.09297,0.684484 -0.152612,0.745142 -0.05964,0.06066 -0.588457,-0.764651 -1.175149,-1.834023 z"
     style="fill:#008489;fill-opacity:1;stroke-width:0.14107874" />
  <path
     id="path5196"
     d="m 8.5600501,25.577501 c -1.987828,-0.07568 -2.16751,-0.106242 -2.962439,-0.503807 -0.752788,-0.376488 -0.91201,-0.535925 -1.441553,-1.443466 -1.084548,-1.858722 -2.895077,-5.412363 -2.80395,-5.503491 0.04931,-0.04931 0.371357,0.0472 0.71566,0.214479 0.590921,0.287092 0.903042,0.30961 5.569516,0.401806 l 4.9435099,0.09767 v 3.433929 3.433928 l -0.952281,-0.02524 c -0.523756,-0.01387 -1.9045629,-0.0615 -3.0684629,-0.10581 z"
     style="fill:#008489;fill-opacity:1;stroke-width:0.14107874" />
  <path
     id="path5198"
     d="m 3.2695961,17.946151 c -0.34917,-0.06103 -0.806119,-0.177701 -1.015445,-0.259268 -0.62758,-0.244553 -1.54734498,-1.173974 -1.88814698,-1.907967 -0.377965,-0.814031 -0.406324,-0.708469 0.86610498,-3.223916 0.499872,-0.988193 0.907432,-1.845246 0.905689,-1.904564 -0.0019,-0.05932 -0.31404,-0.330048 -0.693989,-0.601626 C 1.0253821,9.7497298 0.81802912,9.5196778 0.91793512,9.4653668 1.0086551,9.4160468 2.3440951,9.3525648 3.8855851,9.3242878 l 2.802708,-0.05141 1.393159,2.6099552 c 0.766238,1.435477 1.393711,2.658861 1.394384,2.718634 6.93e-4,0.05977 -0.250188,-0.01958 -0.557469,-0.17635 -0.307282,-0.156762 -0.624061,-0.285022 -0.703952,-0.285022 -0.07989,0 -0.360122,0.333297 -0.622736,0.740661 -0.262611,0.407366 -0.833204,1.296162 -1.267985,1.975104 l -0.790508,1.234438 -0.814367,-0.0166 c -0.447902,-0.0091 -1.100053,-0.06652 -1.449223,-0.127553 z"
     style="fill:#008489;fill-opacity:1;stroke-width:0.14107874" />
  <path
     id="path5200"
     d="m 8.8422081,8.2003178 c -3.240888,-1.895893 -3.732998,-2.233717 -3.635253,-2.49554 0.307378,-0.823368 2.712422,-4.395241 3.282339,-4.874794 0.586073,-0.493148 1.445737,-0.504662 2.3787639,-0.03186 0.807024,0.408953 2.053305,1.716671 2.601345,2.729587 0.462943,0.855634 0.588461,0.509137 -1.276258,3.523177 -0.73208,1.183297 -1.404617,2.148826 -1.494524,2.145621 -0.08991,-0.0032 -0.9252929,-0.451493 -1.8564129,-0.996191 z"
     style="fill:#008489;fill-opacity:1;stroke-width:0.14107874" />
</svg>
